<svg xmlns="http://www.w3.org/2000/svg" xmlns:xlink="http://www.w3.org/1999/xlink" width="705" zoomAndPan="magnify" viewBox="0 0 528.75 431.249996" height="575" preserveAspectRatio="xMidYMid meet" version="1.0"><defs><clipPath id="6dcb417e15"><path d="M 104 88.835938 L 407 88.835938 L 407 328 L 104 328 Z M 104 88.835938 " clip-rule="nonzero"/></clipPath><clipPath id="27f5a45c5a"><path d="M 117 98 L 416 98 L 416 341 L 117 341 Z M 117 98 " clip-rule="nonzero"/></clipPath><clipPath id="d5ab262ff4"><path d="M 105.6875 117.492188 L 411.238281 87.859375 L 434.324219 325.90625 L 128.777344 355.542969 Z M 105.6875 117.492188 " clip-rule="nonzero"/></clipPath><clipPath id="0296ede8bc"><path d="M 105.6875 117.492188 L 411.238281 87.859375 L 434.324219 325.90625 L 128.777344 355.542969 Z M 105.6875 117.492188 " clip-rule="nonzero"/></clipPath><clipPath id="6f61a51339"><path d="M 98 75.070312 L 401 75.070312 L 401 314.234375 L 98 314.234375 Z M 98 75.070312 " clip-rule="nonzero"/></clipPath><clipPath id="6b639f835b"><path d="M 133 116.375 L 436 116.375 L 436 355.542969 L 133 355.542969 Z M 133 116.375 " clip-rule="nonzero"/></clipPath><clipPath id="1396a8d916"><path d="M 76 114.371094 L 379 114.371094 L 379 353.535156 L 76 353.535156 Z M 76 114.371094 " clip-rule="nonzero"/></clipPath><clipPath id="e932a24897"><path d="M 146.085938 105.140625 L 449 105.140625 L 449 344.304688 L 146.085938 344.304688 Z M 146.085938 105.140625 " clip-rule="nonzero"/></clipPath></defs><g clip-path="url(#6dcb417e15)"><path fill="#ffffff" d="M 287.148438 90.289062 C 298.070312 90.289062 308.1875 90.945312 318.234375 92.402344 C 320.488281 92.695312 322.890625 92.984375 325.222656 93.277344 C 338.761719 94.878906 352.738281 96.554688 365.257812 101.507812 C 379.382812 107.042969 389.355469 116 395.835938 128.816406 C 397.871094 132.820312 399.621094 137.191406 400.929688 141.707031 C 407.554688 165.011719 405.589844 193.488281 395.105469 226.332031 C 391.976562 233.761719 388.117188 240.898438 383.824219 247.453125 C 354.195312 296.976562 307.894531 326.542969 259.851562 326.542969 C 256.792969 326.542969 253.734375 326.398438 250.679688 326.179688 C 244.78125 325.742188 238.886719 324.796875 233.0625 323.484375 L 232.914062 323.484375 C 203.070312 320.570312 171.621094 308.773438 148.761719 291.949219 C 128.816406 277.238281 105.15625 251.3125 105.523438 211.113281 C 105.523438 187.296875 113.457031 160.351562 127.214844 137.265625 C 130.34375 132.3125 133.984375 127.871094 137.917969 124.011719 C 142.210938 119.785156 146.796875 116.289062 151.964844 113.378906 C 156.550781 110.753906 161.574219 108.644531 167.179688 106.894531 C 175.84375 105.367188 184.652344 103.691406 193.167969 102.089844 C 223.890625 96.335938 255.554688 90.289062 287.148438 90.289062 M 287.148438 88.835938 C 246.527344 88.835938 206.636719 98.59375 166.890625 105.511719 C 161.503906 107.1875 156.332031 109.296875 151.3125 112.140625 C 146.289062 114.980469 141.484375 118.546875 136.898438 122.992188 C 132.675781 127.140625 129.035156 131.65625 125.976562 136.464844 C 112.730469 158.675781 104.066406 185.621094 104.066406 211.113281 C 103.410156 283.210938 178.390625 319.625 232.625 324.867188 C 238.59375 326.253906 244.5625 327.125 250.460938 327.636719 C 253.589844 327.855469 256.648438 328 259.777344 328 C 309.570312 328 355.796875 297.046875 384.914062 248.253906 C 389.71875 240.972656 393.433594 233.832031 396.34375 226.84375 C 405.078125 199.53125 410.03125 168.945312 402.167969 141.34375 C 400.855469 136.828125 399.109375 132.457031 397 128.160156 C 380.910156 96.117188 346.84375 94.660156 318.304688 91.019531 C 307.894531 89.488281 297.484375 88.835938 287.148438 88.835938 Z M 287.148438 88.835938 " fill-opacity="1" fill-rule="nonzero"/></g><g clip-path="url(#27f5a45c5a)"><g clip-path="url(#d5ab262ff4)"><g clip-path="url(#0296ede8bc)"><path fill="#ffffff" d="M 288.890625 101.1875 C 299.757812 100.132812 309.894531 99.808594 320.03125 100.289062 C 322.308594 100.363281 324.726562 100.417969 327.074219 100.484375 C 340.703125 100.773438 354.777344 101.089844 367.71875 104.808594 C 382.308594 108.957031 393.101562 116.910156 400.785156 129.042969 C 403.203125 132.832031 405.363281 137.011719 407.101562 141.378906 C 415.945312 163.9375 416.738281 192.46875 409.476562 226.171875 C 407.078125 233.867188 403.925781 241.34375 400.285156 248.285156 C 375.574219 300.433594 332.347656 334.335938 284.527344 338.972656 C 281.484375 339.269531 278.425781 339.417969 275.359375 339.496094 C 269.449219 339.628906 263.488281 339.257812 257.566406 338.515625 L 257.492188 338.519531 L 257.421875 338.527344 C 227.433594 338.511719 194.992188 329.804688 170.617188 315.265625 C 149.34375 302.546875 123.292969 279.027344 119.773438 238.976562 C 117.476562 215.273438 122.773438 187.6875 134.238281 163.382812 C 136.875 158.148438 140.070312 153.378906 143.609375 149.15625 C 147.476562 144.535156 151.703125 140.613281 156.566406 137.214844 C 160.878906 134.164062 165.675781 131.578125 171.085938 129.296875 C 179.558594 126.9375 188.164062 124.421875 196.488281 122.003906 C 226.507812 113.3125 257.445312 104.238281 288.890625 101.1875 M 288.75 99.738281 C 248.320312 103.660156 209.554688 117.222656 170.660156 127.945312 C 165.460938 130.132812 160.519531 132.734375 155.796875 136.046875 C 151.070312 139.359375 146.632812 143.375 142.496094 148.238281 C 138.695312 152.777344 135.507812 157.625 132.929688 162.703125 C 121.886719 186.089844 115.863281 213.746094 118.324219 239.117188 C 124.632812 310.945312 202.777344 339.949219 257.265625 339.933594 C 263.339844 340.734375 269.367188 341.027344 275.285156 340.964844 C 278.421875 340.882812 281.476562 340.730469 284.59375 340.429688 C 334.152344 335.621094 377.175781 300.351562 401.449219 248.976562 C 405.527344 241.261719 408.535156 233.800781 410.757812 226.5625 C 416.816406 198.535156 418.789062 167.613281 408.300781 140.898438 C 406.558594 136.53125 404.398438 132.351562 401.882812 128.277344 C 382.777344 97.933594 348.726562 99.773438 319.972656 98.90625 C 309.460938 98.386719 299.039062 98.738281 288.75 99.738281 Z M 288.75 99.738281 " fill-opacity="1" fill-rule="nonzero"/></g></g></g><g clip-path="url(#6f61a51339)"><path fill="#98ddcb" d="M 281.101562 76.527344 C 292.023438 76.527344 302.140625 77.179688 312.1875 78.636719 C 314.445312 78.929688 316.847656 79.21875 319.175781 79.511719 C 332.714844 81.113281 346.691406 82.789062 359.214844 87.742188 C 373.335938 93.277344 383.308594 102.234375 389.789062 115.050781 C 391.828125 119.058594 393.574219 123.425781 394.882812 127.941406 C 401.507812 151.246094 399.542969 179.722656 389.058594 212.566406 C 385.929688 219.996094 382.070312 227.132812 377.777344 233.6875 C 348.148438 283.210938 301.851562 312.777344 253.804688 312.777344 C 250.746094 312.777344 247.6875 312.632812 244.632812 312.414062 C 238.734375 311.976562 232.839844 311.03125 227.015625 309.71875 L 226.871094 309.71875 C 197.023438 306.804688 165.574219 295.007812 142.71875 278.183594 C 122.769531 263.472656 99.113281 237.546875 99.476562 197.347656 C 99.476562 173.53125 107.410156 146.585938 121.167969 123.5 C 124.300781 118.546875 127.9375 114.105469 131.871094 110.246094 C 136.164062 106.019531 140.75 102.523438 145.921875 99.613281 C 150.507812 96.988281 155.527344 94.878906 161.132812 93.128906 C 169.796875 91.601562 178.605469 89.925781 187.121094 88.324219 C 217.84375 82.570312 249.507812 76.527344 281.101562 76.527344 M 281.101562 75.070312 C 240.484375 75.070312 200.589844 84.828125 160.84375 91.746094 C 155.457031 93.421875 150.289062 95.535156 145.265625 98.375 C 140.242188 101.214844 135.4375 104.78125 130.851562 109.226562 C 126.628906 113.375 122.988281 117.890625 119.933594 122.699219 C 106.683594 144.910156 98.019531 171.855469 98.019531 197.347656 C 97.363281 269.445312 172.34375 305.859375 226.578125 311.101562 C 232.546875 312.488281 238.515625 313.359375 244.414062 313.871094 C 247.542969 314.089844 250.601562 314.234375 253.730469 314.234375 C 303.523438 314.234375 349.75 283.28125 378.867188 234.488281 C 383.671875 227.207031 387.386719 220.070312 390.296875 213.078125 C 399.03125 185.765625 403.984375 155.179688 396.121094 127.578125 C 394.8125 123.0625 393.0625 118.691406 390.953125 114.394531 C 374.863281 82.351562 340.796875 80.894531 312.261719 77.253906 C 301.851562 75.722656 291.441406 75.070312 281.101562 75.070312 Z M 281.101562 75.070312 " fill-opacity="1" fill-rule="nonzero"/></g><g clip-path="url(#6b639f835b)"><path fill="#ffffff" d="M 316.488281 117.832031 C 327.40625 117.832031 337.527344 118.488281 347.570312 119.945312 C 349.828125 120.238281 352.230469 120.527344 354.558594 120.820312 C 368.101562 122.421875 382.078125 124.097656 394.597656 129.046875 C 408.71875 134.582031 418.695312 143.542969 425.171875 156.359375 C 427.210938 160.363281 428.957031 164.734375 430.269531 169.25 C 436.894531 192.554688 434.925781 221.03125 424.445312 253.875 C 421.316406 261.304688 417.457031 268.441406 413.160156 274.996094 C 383.53125 324.519531 337.234375 354.085938 289.1875 354.085938 C 286.132812 354.085938 283.074219 353.941406 280.015625 353.722656 C 274.121094 353.285156 268.222656 352.335938 262.398438 351.027344 L 262.253906 351.027344 C 232.40625 348.113281 200.960938 336.316406 178.101562 319.492188 C 158.15625 304.78125 134.496094 278.855469 134.859375 238.652344 C 134.859375 214.839844 142.796875 187.894531 156.554688 164.808594 C 159.683594 159.855469 163.324219 155.410156 167.253906 151.550781 C 171.550781 147.328125 176.136719 143.832031 181.304688 140.917969 C 185.890625 138.296875 190.914062 136.1875 196.519531 134.4375 C 205.183594 132.910156 213.992188 131.234375 222.507812 129.632812 C 253.226562 123.878906 284.894531 117.832031 316.488281 117.832031 M 316.488281 116.375 C 275.867188 116.375 235.976562 126.136719 196.226562 133.054688 C 190.839844 134.730469 185.671875 136.839844 180.648438 139.679688 C 175.625 142.523438 170.820312 146.089844 166.234375 150.53125 C 162.011719 154.683594 158.375 159.199219 155.316406 164.003906 C 142.066406 186.21875 133.40625 213.164062 133.40625 238.652344 C 132.75 310.753906 207.730469 347.167969 261.964844 352.410156 C 267.933594 353.792969 273.902344 354.667969 279.796875 355.179688 C 282.929688 355.398438 285.984375 355.542969 289.117188 355.542969 C 338.910156 355.542969 385.132812 324.589844 414.253906 275.796875 C 419.058594 268.511719 422.769531 261.375 425.683594 254.382812 C 434.417969 227.074219 439.367188 196.488281 431.507812 168.886719 C 430.195312 164.371094 428.449219 160 426.335938 155.703125 C 410.25 123.660156 376.179688 122.203125 347.644531 118.5625 C 337.234375 117.03125 326.824219 116.375 316.488281 116.375 Z M 316.488281 116.375 " fill-opacity="1" fill-rule="nonzero"/></g><g clip-path="url(#1396a8d916)"><path fill="#ffffff" d="M 259.851562 115.828125 C 270.769531 115.828125 280.890625 116.480469 290.933594 117.9375 C 293.191406 118.230469 295.59375 118.519531 297.921875 118.8125 C 311.464844 120.414062 325.441406 122.089844 337.960938 127.042969 C 352.085938 132.578125 362.058594 141.535156 368.535156 154.351562 C 370.574219 158.359375 372.320312 162.726562 373.632812 167.242188 C 380.257812 190.546875 378.289062 219.023438 367.808594 251.867188 C 364.679688 259.296875 360.820312 266.433594 356.523438 272.988281 C 326.898438 322.511719 280.597656 352.078125 232.550781 352.078125 C 229.496094 352.078125 226.4375 351.933594 223.378906 351.714844 C 217.484375 351.277344 211.585938 350.332031 205.761719 349.019531 L 205.617188 349.019531 C 175.769531 346.109375 144.324219 334.308594 121.464844 317.484375 C 101.519531 302.773438 77.859375 276.847656 78.222656 236.648438 C 78.222656 212.832031 86.160156 185.886719 99.917969 162.800781 C 103.046875 157.847656 106.6875 153.40625 110.617188 149.546875 C 114.914062 145.320312 119.5 141.824219 124.667969 138.914062 C 129.253906 136.292969 134.277344 134.179688 139.882812 132.429688 C 148.546875 130.902344 157.355469 129.226562 165.871094 127.625 C 196.589844 121.871094 228.257812 115.828125 259.851562 115.828125 M 259.851562 114.371094 C 219.230469 114.371094 179.339844 124.128906 139.589844 131.046875 C 134.203125 132.722656 129.035156 134.835938 124.011719 137.675781 C 118.988281 140.515625 114.183594 144.082031 109.597656 148.527344 C 105.378906 152.675781 101.738281 157.191406 98.679688 162 C 85.429688 184.210938 76.769531 211.15625 76.769531 236.648438 C 76.113281 308.746094 151.09375 345.160156 205.328125 350.402344 C 211.296875 351.789062 217.265625 352.660156 223.160156 353.171875 C 226.292969 353.390625 229.347656 353.535156 232.480469 353.535156 C 282.273438 353.535156 328.5 322.585938 357.617188 273.789062 C 362.421875 266.507812 366.132812 259.371094 369.046875 252.378906 C 377.78125 225.066406 382.730469 194.480469 374.871094 166.878906 C 373.558594 162.363281 371.8125 157.992188 369.699219 153.695312 C 353.613281 121.652344 319.542969 120.195312 291.007812 116.554688 C 280.597656 115.027344 270.1875 114.371094 259.851562 114.371094 Z M 259.851562 114.371094 " fill-opacity="1" fill-rule="nonzero"/></g><g clip-path="url(#e932a24897)"><path fill="#f3a6a4" d="M 330.007812 106.597656 C 340.925781 106.597656 351.046875 107.253906 361.089844 108.710938 C 363.347656 109 365.75 109.292969 368.078125 109.582031 C 381.621094 111.183594 395.597656 112.859375 408.117188 117.8125 C 422.238281 123.347656 432.214844 132.304688 438.691406 145.121094 C 440.730469 149.128906 442.476562 153.496094 443.789062 158.011719 C 450.414062 181.316406 448.445312 209.792969 437.964844 242.640625 C 434.832031 250.066406 430.976562 257.203125 426.679688 263.757812 C 397.050781 313.28125 350.753906 342.851562 302.707031 342.851562 C 299.652344 342.851562 296.59375 342.703125 293.535156 342.484375 C 287.640625 342.046875 281.742188 341.101562 275.917969 339.789062 L 275.773438 339.789062 C 245.925781 336.878906 214.480469 325.078125 191.621094 308.257812 C 171.675781 293.546875 148.015625 267.617188 148.378906 227.417969 C 148.378906 203.601562 156.316406 176.65625 170.074219 153.570312 C 173.203125 148.617188 176.84375 144.175781 180.773438 140.316406 C 185.070312 136.09375 189.65625 132.597656 194.824219 129.683594 C 199.410156 127.0625 204.433594 124.949219 210.039062 123.203125 C 218.703125 121.671875 227.507812 119.996094 236.027344 118.394531 C 266.746094 112.640625 298.414062 106.597656 330.007812 106.597656 M 330.007812 105.140625 C 289.386719 105.140625 249.496094 114.898438 209.746094 121.816406 C 204.359375 123.492188 199.191406 125.605469 194.167969 128.445312 C 189.144531 131.285156 184.339844 134.855469 179.753906 139.296875 C 175.53125 143.449219 171.894531 147.964844 168.835938 152.769531 C 155.585938 174.980469 146.925781 201.929688 146.925781 227.417969 C 146.269531 299.515625 221.25 335.929688 275.484375 341.175781 C 281.453125 342.558594 287.421875 343.433594 293.316406 343.941406 C 296.449219 344.160156 299.503906 344.304688 302.636719 344.304688 C 352.429688 344.304688 398.652344 313.355469 427.773438 264.558594 C 432.578125 257.277344 436.289062 250.140625 439.203125 243.148438 C 447.9375 215.839844 452.886719 185.25 445.023438 157.648438 C 443.714844 153.132812 441.96875 148.765625 439.855469 144.46875 C 423.769531 112.421875 389.699219 110.964844 361.164062 107.324219 C 350.753906 105.796875 340.34375 105.140625 330.007812 105.140625 Z M 330.007812 105.140625 " fill-opacity="1" fill-rule="nonzero"/></g></svg>