<svg xmlns="http://www.w3.org/2000/svg" xmlns:xlink="http://www.w3.org/1999/xlink" width="596" zoomAndPan="magnify" viewBox="0 0 446.88 467.999983" height="624" preserveAspectRatio="xMidYMid meet" version="1.0"><defs><clipPath id="0d8fc135b0"><path d="M 203 246 L 208 246 L 208 252 L 203 252 Z M 203 246 " clip-rule="nonzero"/></clipPath><clipPath id="5af6facc03"><path d="M 339.359375 212.558594 L 371.640625 338.964844 L 161.6875 392.585938 L 129.40625 266.179688 Z M 339.359375 212.558594 " clip-rule="nonzero"/></clipPath><clipPath id="17fa4870d3"><path d="M 339.359375 212.558594 L 371.640625 338.964844 L 161.6875 392.585938 L 129.40625 266.179688 Z M 339.359375 212.558594 " clip-rule="nonzero"/></clipPath><clipPath id="628772bf41"><path d="M 201 256 L 206 256 L 206 262 L 201 262 Z M 201 256 " clip-rule="nonzero"/></clipPath><clipPath id="6f7e65afb9"><path d="M 339.359375 212.558594 L 371.640625 338.964844 L 161.6875 392.585938 L 129.40625 266.179688 Z M 339.359375 212.558594 " clip-rule="nonzero"/></clipPath><clipPath id="9f21b7d1bd"><path d="M 339.359375 212.558594 L 371.640625 338.964844 L 161.6875 392.585938 L 129.40625 266.179688 Z M 339.359375 212.558594 " clip-rule="nonzero"/></clipPath><clipPath id="7b48ddf044"><path d="M 216 261 L 221 261 L 221 266 L 216 266 Z M 216 261 " clip-rule="nonzero"/></clipPath><clipPath id="838b065a9d"><path d="M 339.359375 212.558594 L 371.640625 338.964844 L 161.6875 392.585938 L 129.40625 266.179688 Z M 339.359375 212.558594 " clip-rule="nonzero"/></clipPath><clipPath id="4ebd49a098"><path d="M 339.359375 212.558594 L 371.640625 338.964844 L 161.6875 392.585938 L 129.40625 266.179688 Z M 339.359375 212.558594 " clip-rule="nonzero"/></clipPath><clipPath id="25f633c52c"><path d="M 231 258 L 236 258 L 236 262 L 231 262 Z M 231 258 " clip-rule="nonzero"/></clipPath><clipPath id="ee37a0d9fa"><path d="M 339.359375 212.558594 L 371.640625 338.964844 L 161.6875 392.585938 L 129.40625 266.179688 Z M 339.359375 212.558594 " clip-rule="nonzero"/></clipPath><clipPath id="3ed30a227b"><path d="M 339.359375 212.558594 L 371.640625 338.964844 L 161.6875 392.585938 L 129.40625 266.179688 Z M 339.359375 212.558594 " clip-rule="nonzero"/></clipPath><clipPath id="8825a054ae"><path d="M 264 255 L 269 255 L 269 260 L 264 260 Z M 264 255 " clip-rule="nonzero"/></clipPath><clipPath id="befea8e0eb"><path d="M 339.359375 212.558594 L 371.640625 338.964844 L 161.6875 392.585938 L 129.40625 266.179688 Z M 339.359375 212.558594 " clip-rule="nonzero"/></clipPath><clipPath id="41f3557a4a"><path d="M 339.359375 212.558594 L 371.640625 338.964844 L 161.6875 392.585938 L 129.40625 266.179688 Z M 339.359375 212.558594 " clip-rule="nonzero"/></clipPath><clipPath id="48bb7ccf18"><path d="M 192 284 L 196 284 L 196 288 L 192 288 Z M 192 284 " clip-rule="nonzero"/></clipPath><clipPath id="af4fa35ea0"><path d="M 339.359375 212.558594 L 371.640625 338.964844 L 161.6875 392.585938 L 129.40625 266.179688 Z M 339.359375 212.558594 " clip-rule="nonzero"/></clipPath><clipPath id="a055911314"><path d="M 339.359375 212.558594 L 371.640625 338.964844 L 161.6875 392.585938 L 129.40625 266.179688 Z M 339.359375 212.558594 " clip-rule="nonzero"/></clipPath><clipPath id="b15dcdf07c"><path d="M 198 291 L 203 291 L 203 296 L 198 296 Z M 198 291 " clip-rule="nonzero"/></clipPath><clipPath id="34f218fd06"><path d="M 339.359375 212.558594 L 371.640625 338.964844 L 161.6875 392.585938 L 129.40625 266.179688 Z M 339.359375 212.558594 " clip-rule="nonzero"/></clipPath><clipPath id="011739262c"><path d="M 339.359375 212.558594 L 371.640625 338.964844 L 161.6875 392.585938 L 129.40625 266.179688 Z M 339.359375 212.558594 " clip-rule="nonzero"/></clipPath><clipPath id="e4dda16777"><path d="M 204 277 L 208 277 L 208 281 L 204 281 Z M 204 277 " clip-rule="nonzero"/></clipPath><clipPath id="e945fe3c7e"><path d="M 339.359375 212.558594 L 371.640625 338.964844 L 161.6875 392.585938 L 129.40625 266.179688 Z M 339.359375 212.558594 " clip-rule="nonzero"/></clipPath><clipPath id="acaf9b9f7f"><path d="M 339.359375 212.558594 L 371.640625 338.964844 L 161.6875 392.585938 L 129.40625 266.179688 Z M 339.359375 212.558594 " clip-rule="nonzero"/></clipPath><clipPath id="6dbb855aa8"><path d="M 181 292 L 184 292 L 184 296 L 181 296 Z M 181 292 " clip-rule="nonzero"/></clipPath><clipPath id="f3e764e73a"><path d="M 339.359375 212.558594 L 371.640625 338.964844 L 161.6875 392.585938 L 129.40625 266.179688 Z M 339.359375 212.558594 " clip-rule="nonzero"/></clipPath><clipPath id="f9dd403658"><path d="M 339.359375 212.558594 L 371.640625 338.964844 L 161.6875 392.585938 L 129.40625 266.179688 Z M 339.359375 212.558594 " clip-rule="nonzero"/></clipPath><clipPath id="053f2fac68"><path d="M 215 330 L 219 330 L 219 334 L 215 334 Z M 215 330 " clip-rule="nonzero"/></clipPath><clipPath id="3ffd7809a8"><path d="M 339.359375 212.558594 L 371.640625 338.964844 L 161.6875 392.585938 L 129.40625 266.179688 Z M 339.359375 212.558594 " clip-rule="nonzero"/></clipPath><clipPath id="16ba2e3f51"><path d="M 339.359375 212.558594 L 371.640625 338.964844 L 161.6875 392.585938 L 129.40625 266.179688 Z M 339.359375 212.558594 " clip-rule="nonzero"/></clipPath><clipPath id="2c63d0285b"><path d="M 238 349 L 241 349 L 241 352 L 238 352 Z M 238 349 " clip-rule="nonzero"/></clipPath><clipPath id="51bca29191"><path d="M 339.359375 212.558594 L 371.640625 338.964844 L 161.6875 392.585938 L 129.40625 266.179688 Z M 339.359375 212.558594 " clip-rule="nonzero"/></clipPath><clipPath id="4f9b715103"><path d="M 339.359375 212.558594 L 371.640625 338.964844 L 161.6875 392.585938 L 129.40625 266.179688 Z M 339.359375 212.558594 " clip-rule="nonzero"/></clipPath><clipPath id="cc9ae35a13"><path d="M 176 335 L 181 335 L 181 340 L 176 340 Z M 176 335 " clip-rule="nonzero"/></clipPath><clipPath id="47d4f6a33a"><path d="M 339.359375 212.558594 L 371.640625 338.964844 L 161.6875 392.585938 L 129.40625 266.179688 Z M 339.359375 212.558594 " clip-rule="nonzero"/></clipPath><clipPath id="b83090bd27"><path d="M 339.359375 212.558594 L 371.640625 338.964844 L 161.6875 392.585938 L 129.40625 266.179688 Z M 339.359375 212.558594 " clip-rule="nonzero"/></clipPath><clipPath id="d32d8388df"><path d="M 178 343 L 182 343 L 182 348 L 178 348 Z M 178 343 " clip-rule="nonzero"/></clipPath><clipPath id="8a06290764"><path d="M 339.359375 212.558594 L 371.640625 338.964844 L 161.6875 392.585938 L 129.40625 266.179688 Z M 339.359375 212.558594 " clip-rule="nonzero"/></clipPath><clipPath id="2279b2e81a"><path d="M 339.359375 212.558594 L 371.640625 338.964844 L 161.6875 392.585938 L 129.40625 266.179688 Z M 339.359375 212.558594 " clip-rule="nonzero"/></clipPath><clipPath id="1e6c136c86"><path d="M 167 345 L 171 345 L 171 349 L 167 349 Z M 167 345 " clip-rule="nonzero"/></clipPath><clipPath id="f87cdc3f92"><path d="M 339.359375 212.558594 L 371.640625 338.964844 L 161.6875 392.585938 L 129.40625 266.179688 Z M 339.359375 212.558594 " clip-rule="nonzero"/></clipPath><clipPath id="e0c34fbd6b"><path d="M 339.359375 212.558594 L 371.640625 338.964844 L 161.6875 392.585938 L 129.40625 266.179688 Z M 339.359375 212.558594 " clip-rule="nonzero"/></clipPath><clipPath id="71b22c1837"><path d="M 152 350 L 157 350 L 157 355 L 152 355 Z M 152 350 " clip-rule="nonzero"/></clipPath><clipPath id="5d67c2e388"><path d="M 339.359375 212.558594 L 371.640625 338.964844 L 161.6875 392.585938 L 129.40625 266.179688 Z M 339.359375 212.558594 " clip-rule="nonzero"/></clipPath><clipPath id="5f1f96651d"><path d="M 339.359375 212.558594 L 371.640625 338.964844 L 161.6875 392.585938 L 129.40625 266.179688 Z M 339.359375 212.558594 " clip-rule="nonzero"/></clipPath><clipPath id="bc5b7343c0"><path d="M 166 364 L 170 364 L 170 369 L 166 369 Z M 166 364 " clip-rule="nonzero"/></clipPath><clipPath id="046580d921"><path d="M 339.359375 212.558594 L 371.640625 338.964844 L 161.6875 392.585938 L 129.40625 266.179688 Z M 339.359375 212.558594 " clip-rule="nonzero"/></clipPath><clipPath id="75dbe8d7f0"><path d="M 339.359375 212.558594 L 371.640625 338.964844 L 161.6875 392.585938 L 129.40625 266.179688 Z M 339.359375 212.558594 " clip-rule="nonzero"/></clipPath><clipPath id="3968aff0d1"><path d="M 163 386 L 168 386 L 168 392 L 163 392 Z M 163 386 " clip-rule="nonzero"/></clipPath><clipPath id="c67d1611f1"><path d="M 339.359375 212.558594 L 371.640625 338.964844 L 161.6875 392.585938 L 129.40625 266.179688 Z M 339.359375 212.558594 " clip-rule="nonzero"/></clipPath><clipPath id="c50dbc70a2"><path d="M 339.359375 212.558594 L 371.640625 338.964844 L 161.6875 392.585938 L 129.40625 266.179688 Z M 339.359375 212.558594 " clip-rule="nonzero"/></clipPath><clipPath id="8ad97fccd6"><path d="M 230 364 L 235 364 L 235 368 L 230 368 Z M 230 364 " clip-rule="nonzero"/></clipPath><clipPath id="d93395e89c"><path d="M 339.359375 212.558594 L 371.640625 338.964844 L 161.6875 392.585938 L 129.40625 266.179688 Z M 339.359375 212.558594 " clip-rule="nonzero"/></clipPath><clipPath id="062112f3dc"><path d="M 339.359375 212.558594 L 371.640625 338.964844 L 161.6875 392.585938 L 129.40625 266.179688 Z M 339.359375 212.558594 " clip-rule="nonzero"/></clipPath><clipPath id="76d8ccef05"><path d="M 246 357 L 251 357 L 251 361 L 246 361 Z M 246 357 " clip-rule="nonzero"/></clipPath><clipPath id="97636d1327"><path d="M 339.359375 212.558594 L 371.640625 338.964844 L 161.6875 392.585938 L 129.40625 266.179688 Z M 339.359375 212.558594 " clip-rule="nonzero"/></clipPath><clipPath id="780e53ccdf"><path d="M 339.359375 212.558594 L 371.640625 338.964844 L 161.6875 392.585938 L 129.40625 266.179688 Z M 339.359375 212.558594 " clip-rule="nonzero"/></clipPath><clipPath id="b3ac3a9e47"><path d="M 284 345 L 288 345 L 288 348 L 284 348 Z M 284 345 " clip-rule="nonzero"/></clipPath><clipPath id="02818d38e6"><path d="M 339.359375 212.558594 L 371.640625 338.964844 L 161.6875 392.585938 L 129.40625 266.179688 Z M 339.359375 212.558594 " clip-rule="nonzero"/></clipPath><clipPath id="9264c80b64"><path d="M 339.359375 212.558594 L 371.640625 338.964844 L 161.6875 392.585938 L 129.40625 266.179688 Z M 339.359375 212.558594 " clip-rule="nonzero"/></clipPath><clipPath id="70218537f7"><path d="M 237 295 L 241 295 L 241 299 L 237 299 Z M 237 295 " clip-rule="nonzero"/></clipPath><clipPath id="3a2d4a131c"><path d="M 339.359375 212.558594 L 371.640625 338.964844 L 161.6875 392.585938 L 129.40625 266.179688 Z M 339.359375 212.558594 " clip-rule="nonzero"/></clipPath><clipPath id="0fcb8877e8"><path d="M 339.359375 212.558594 L 371.640625 338.964844 L 161.6875 392.585938 L 129.40625 266.179688 Z M 339.359375 212.558594 " clip-rule="nonzero"/></clipPath><clipPath id="602056713c"><path d="M 270 294 L 275 294 L 275 299 L 270 299 Z M 270 294 " clip-rule="nonzero"/></clipPath><clipPath id="3a2af8dc60"><path d="M 339.359375 212.558594 L 371.640625 338.964844 L 161.6875 392.585938 L 129.40625 266.179688 Z M 339.359375 212.558594 " clip-rule="nonzero"/></clipPath><clipPath id="c2da155767"><path d="M 339.359375 212.558594 L 371.640625 338.964844 L 161.6875 392.585938 L 129.40625 266.179688 Z M 339.359375 212.558594 " clip-rule="nonzero"/></clipPath><clipPath id="ec8ed2b05a"><path d="M 258 294 L 262 294 L 262 298 L 258 298 Z M 258 294 " clip-rule="nonzero"/></clipPath><clipPath id="bd90dc1c26"><path d="M 339.359375 212.558594 L 371.640625 338.964844 L 161.6875 392.585938 L 129.40625 266.179688 Z M 339.359375 212.558594 " clip-rule="nonzero"/></clipPath><clipPath id="b023d55b3a"><path d="M 339.359375 212.558594 L 371.640625 338.964844 L 161.6875 392.585938 L 129.40625 266.179688 Z M 339.359375 212.558594 " clip-rule="nonzero"/></clipPath><clipPath id="63b348f754"><path d="M 255 304 L 261 304 L 261 309 L 255 309 Z M 255 304 " clip-rule="nonzero"/></clipPath><clipPath id="c40725d984"><path d="M 339.359375 212.558594 L 371.640625 338.964844 L 161.6875 392.585938 L 129.40625 266.179688 Z M 339.359375 212.558594 " clip-rule="nonzero"/></clipPath><clipPath id="a07e725d29"><path d="M 339.359375 212.558594 L 371.640625 338.964844 L 161.6875 392.585938 L 129.40625 266.179688 Z M 339.359375 212.558594 " clip-rule="nonzero"/></clipPath><clipPath id="a8cd2141b0"><path d="M 316 315 L 322 315 L 322 320 L 316 320 Z M 316 315 " clip-rule="nonzero"/></clipPath><clipPath id="cf5dc49ad4"><path d="M 339.359375 212.558594 L 371.640625 338.964844 L 161.6875 392.585938 L 129.40625 266.179688 Z M 339.359375 212.558594 " clip-rule="nonzero"/></clipPath><clipPath id="3dfc02b83f"><path d="M 339.359375 212.558594 L 371.640625 338.964844 L 161.6875 392.585938 L 129.40625 266.179688 Z M 339.359375 212.558594 " clip-rule="nonzero"/></clipPath><clipPath id="54159c2d66"><path d="M 334 304 L 338 304 L 338 308 L 334 308 Z M 334 304 " clip-rule="nonzero"/></clipPath><clipPath id="86c84fe4f6"><path d="M 339.359375 212.558594 L 371.640625 338.964844 L 161.6875 392.585938 L 129.40625 266.179688 Z M 339.359375 212.558594 " clip-rule="nonzero"/></clipPath><clipPath id="d1bcf53431"><path d="M 339.359375 212.558594 L 371.640625 338.964844 L 161.6875 392.585938 L 129.40625 266.179688 Z M 339.359375 212.558594 " clip-rule="nonzero"/></clipPath><clipPath id="a37017d7d0"><path d="M 324 292 L 327 292 L 327 296 L 324 296 Z M 324 292 " clip-rule="nonzero"/></clipPath><clipPath id="da92a8a571"><path d="M 339.359375 212.558594 L 371.640625 338.964844 L 161.6875 392.585938 L 129.40625 266.179688 Z M 339.359375 212.558594 " clip-rule="nonzero"/></clipPath><clipPath id="b519a863d1"><path d="M 339.359375 212.558594 L 371.640625 338.964844 L 161.6875 392.585938 L 129.40625 266.179688 Z M 339.359375 212.558594 " clip-rule="nonzero"/></clipPath><clipPath id="4f7ff30fa8"><path d="M 355 287 L 359 287 L 359 290 L 355 290 Z M 355 287 " clip-rule="nonzero"/></clipPath><clipPath id="2376ca45e5"><path d="M 339.359375 212.558594 L 371.640625 338.964844 L 161.6875 392.585938 L 129.40625 266.179688 Z M 339.359375 212.558594 " clip-rule="nonzero"/></clipPath><clipPath id="41924899c2"><path d="M 339.359375 212.558594 L 371.640625 338.964844 L 161.6875 392.585938 L 129.40625 266.179688 Z M 339.359375 212.558594 " clip-rule="nonzero"/></clipPath><clipPath id="41fc1d6858"><path d="M 149 109 L 154 109 L 154 115 L 149 115 Z M 149 109 " clip-rule="nonzero"/></clipPath><clipPath id="b3cd4c5271"><path d="M 285.371094 75.429688 L 317.65625 201.835938 L 107.703125 255.457031 L 75.417969 129.046875 Z M 285.371094 75.429688 " clip-rule="nonzero"/></clipPath><clipPath id="08f4f5fef6"><path d="M 285.371094 75.429688 L 317.65625 201.835938 L 107.703125 255.457031 L 75.417969 129.046875 Z M 285.371094 75.429688 " clip-rule="nonzero"/></clipPath><clipPath id="3fac1c6c05"><path d="M 147 119 L 152 119 L 152 125 L 147 125 Z M 147 119 " clip-rule="nonzero"/></clipPath><clipPath id="ecb920ca4d"><path d="M 285.371094 75.429688 L 317.65625 201.835938 L 107.703125 255.457031 L 75.417969 129.046875 Z M 285.371094 75.429688 " clip-rule="nonzero"/></clipPath><clipPath id="1898ab91b5"><path d="M 285.371094 75.429688 L 317.65625 201.835938 L 107.703125 255.457031 L 75.417969 129.046875 Z M 285.371094 75.429688 " clip-rule="nonzero"/></clipPath><clipPath id="d49622705e"><path d="M 162 124 L 167 124 L 167 129 L 162 129 Z M 162 124 " clip-rule="nonzero"/></clipPath><clipPath id="a4545d3825"><path d="M 285.371094 75.429688 L 317.65625 201.835938 L 107.703125 255.457031 L 75.417969 129.046875 Z M 285.371094 75.429688 " clip-rule="nonzero"/></clipPath><clipPath id="c18e46334a"><path d="M 285.371094 75.429688 L 317.65625 201.835938 L 107.703125 255.457031 L 75.417969 129.046875 Z M 285.371094 75.429688 " clip-rule="nonzero"/></clipPath><clipPath id="8ae22a4ff3"><path d="M 177 121 L 182 121 L 182 125 L 177 125 Z M 177 121 " clip-rule="nonzero"/></clipPath><clipPath id="d24d3daab9"><path d="M 285.371094 75.429688 L 317.65625 201.835938 L 107.703125 255.457031 L 75.417969 129.046875 Z M 285.371094 75.429688 " clip-rule="nonzero"/></clipPath><clipPath id="33d97b45c0"><path d="M 285.371094 75.429688 L 317.65625 201.835938 L 107.703125 255.457031 L 75.417969 129.046875 Z M 285.371094 75.429688 " clip-rule="nonzero"/></clipPath><clipPath id="a80d8f063f"><path d="M 210 118 L 215 118 L 215 123 L 210 123 Z M 210 118 " clip-rule="nonzero"/></clipPath><clipPath id="c9f6b0cb29"><path d="M 285.371094 75.429688 L 317.65625 201.835938 L 107.703125 255.457031 L 75.417969 129.046875 Z M 285.371094 75.429688 " clip-rule="nonzero"/></clipPath><clipPath id="c45b52a101"><path d="M 285.371094 75.429688 L 317.65625 201.835938 L 107.703125 255.457031 L 75.417969 129.046875 Z M 285.371094 75.429688 " clip-rule="nonzero"/></clipPath><clipPath id="7d526ec1c2"><path d="M 138 147 L 142 147 L 142 151 L 138 151 Z M 138 147 " clip-rule="nonzero"/></clipPath><clipPath id="a32b0ae604"><path d="M 285.371094 75.429688 L 317.65625 201.835938 L 107.703125 255.457031 L 75.417969 129.046875 Z M 285.371094 75.429688 " clip-rule="nonzero"/></clipPath><clipPath id="473397ec89"><path d="M 285.371094 75.429688 L 317.65625 201.835938 L 107.703125 255.457031 L 75.417969 129.046875 Z M 285.371094 75.429688 " clip-rule="nonzero"/></clipPath><clipPath id="4b8f47fd3a"><path d="M 144 154 L 149 154 L 149 159 L 144 159 Z M 144 154 " clip-rule="nonzero"/></clipPath><clipPath id="23a48f3bb9"><path d="M 285.371094 75.429688 L 317.65625 201.835938 L 107.703125 255.457031 L 75.417969 129.046875 Z M 285.371094 75.429688 " clip-rule="nonzero"/></clipPath><clipPath id="6815a192b8"><path d="M 285.371094 75.429688 L 317.65625 201.835938 L 107.703125 255.457031 L 75.417969 129.046875 Z M 285.371094 75.429688 " clip-rule="nonzero"/></clipPath><clipPath id="1ec8c6684e"><path d="M 150 140 L 154 140 L 154 144 L 150 144 Z M 150 140 " clip-rule="nonzero"/></clipPath><clipPath id="ceaa518ff6"><path d="M 285.371094 75.429688 L 317.65625 201.835938 L 107.703125 255.457031 L 75.417969 129.046875 Z M 285.371094 75.429688 " clip-rule="nonzero"/></clipPath><clipPath id="7ee21d075a"><path d="M 285.371094 75.429688 L 317.65625 201.835938 L 107.703125 255.457031 L 75.417969 129.046875 Z M 285.371094 75.429688 " clip-rule="nonzero"/></clipPath><clipPath id="8d0c7df977"><path d="M 127 155 L 130 155 L 130 159 L 127 159 Z M 127 155 " clip-rule="nonzero"/></clipPath><clipPath id="566dad720f"><path d="M 285.371094 75.429688 L 317.65625 201.835938 L 107.703125 255.457031 L 75.417969 129.046875 Z M 285.371094 75.429688 " clip-rule="nonzero"/></clipPath><clipPath id="bd2c742ed2"><path d="M 285.371094 75.429688 L 317.65625 201.835938 L 107.703125 255.457031 L 75.417969 129.046875 Z M 285.371094 75.429688 " clip-rule="nonzero"/></clipPath><clipPath id="65989d7f13"><path d="M 161 193 L 165 193 L 165 197 L 161 197 Z M 161 193 " clip-rule="nonzero"/></clipPath><clipPath id="fc1db308d2"><path d="M 285.371094 75.429688 L 317.65625 201.835938 L 107.703125 255.457031 L 75.417969 129.046875 Z M 285.371094 75.429688 " clip-rule="nonzero"/></clipPath><clipPath id="dc3215939b"><path d="M 285.371094 75.429688 L 317.65625 201.835938 L 107.703125 255.457031 L 75.417969 129.046875 Z M 285.371094 75.429688 " clip-rule="nonzero"/></clipPath><clipPath id="dcf0d77599"><path d="M 184 211 L 187 211 L 187 215 L 184 215 Z M 184 211 " clip-rule="nonzero"/></clipPath><clipPath id="4e88840664"><path d="M 285.371094 75.429688 L 317.65625 201.835938 L 107.703125 255.457031 L 75.417969 129.046875 Z M 285.371094 75.429688 " clip-rule="nonzero"/></clipPath><clipPath id="9d76582282"><path d="M 285.371094 75.429688 L 317.65625 201.835938 L 107.703125 255.457031 L 75.417969 129.046875 Z M 285.371094 75.429688 " clip-rule="nonzero"/></clipPath><clipPath id="dddb0aca66"><path d="M 122 198 L 127 198 L 127 203 L 122 203 Z M 122 198 " clip-rule="nonzero"/></clipPath><clipPath id="09ad4ba36b"><path d="M 285.371094 75.429688 L 317.65625 201.835938 L 107.703125 255.457031 L 75.417969 129.046875 Z M 285.371094 75.429688 " clip-rule="nonzero"/></clipPath><clipPath id="5abb70793b"><path d="M 285.371094 75.429688 L 317.65625 201.835938 L 107.703125 255.457031 L 75.417969 129.046875 Z M 285.371094 75.429688 " clip-rule="nonzero"/></clipPath><clipPath id="f2f9ff0b07"><path d="M 124 206 L 128 206 L 128 211 L 124 211 Z M 124 206 " clip-rule="nonzero"/></clipPath><clipPath id="eabf5b52e9"><path d="M 285.371094 75.429688 L 317.65625 201.835938 L 107.703125 255.457031 L 75.417969 129.046875 Z M 285.371094 75.429688 " clip-rule="nonzero"/></clipPath><clipPath id="c7387f1893"><path d="M 285.371094 75.429688 L 317.65625 201.835938 L 107.703125 255.457031 L 75.417969 129.046875 Z M 285.371094 75.429688 " clip-rule="nonzero"/></clipPath><clipPath id="9a0b225cf2"><path d="M 113 208 L 117 208 L 117 212 L 113 212 Z M 113 208 " clip-rule="nonzero"/></clipPath><clipPath id="3eba6a8059"><path d="M 285.371094 75.429688 L 317.65625 201.835938 L 107.703125 255.457031 L 75.417969 129.046875 Z M 285.371094 75.429688 " clip-rule="nonzero"/></clipPath><clipPath id="3148e3edf2"><path d="M 285.371094 75.429688 L 317.65625 201.835938 L 107.703125 255.457031 L 75.417969 129.046875 Z M 285.371094 75.429688 " clip-rule="nonzero"/></clipPath><clipPath id="84e176a74b"><path d="M 98 212 L 103 212 L 103 218 L 98 218 Z M 98 212 " clip-rule="nonzero"/></clipPath><clipPath id="f9b0fec5fe"><path d="M 285.371094 75.429688 L 317.65625 201.835938 L 107.703125 255.457031 L 75.417969 129.046875 Z M 285.371094 75.429688 " clip-rule="nonzero"/></clipPath><clipPath id="c6841dcfce"><path d="M 285.371094 75.429688 L 317.65625 201.835938 L 107.703125 255.457031 L 75.417969 129.046875 Z M 285.371094 75.429688 " clip-rule="nonzero"/></clipPath><clipPath id="66ee468fae"><path d="M 112 227 L 116 227 L 116 232 L 112 232 Z M 112 227 " clip-rule="nonzero"/></clipPath><clipPath id="40a3f68e9e"><path d="M 285.371094 75.429688 L 317.65625 201.835938 L 107.703125 255.457031 L 75.417969 129.046875 Z M 285.371094 75.429688 " clip-rule="nonzero"/></clipPath><clipPath id="1b53a5dc49"><path d="M 285.371094 75.429688 L 317.65625 201.835938 L 107.703125 255.457031 L 75.417969 129.046875 Z M 285.371094 75.429688 " clip-rule="nonzero"/></clipPath><clipPath id="9f78fdb6e0"><path d="M 109 249 L 114 249 L 114 255 L 109 255 Z M 109 249 " clip-rule="nonzero"/></clipPath><clipPath id="55ae99aee3"><path d="M 285.371094 75.429688 L 317.65625 201.835938 L 107.703125 255.457031 L 75.417969 129.046875 Z M 285.371094 75.429688 " clip-rule="nonzero"/></clipPath><clipPath id="a5cd4d91f5"><path d="M 285.371094 75.429688 L 317.65625 201.835938 L 107.703125 255.457031 L 75.417969 129.046875 Z M 285.371094 75.429688 " clip-rule="nonzero"/></clipPath><clipPath id="77319090c1"><path d="M 176 227 L 181 227 L 181 231 L 176 231 Z M 176 227 " clip-rule="nonzero"/></clipPath><clipPath id="b49ed4a902"><path d="M 285.371094 75.429688 L 317.65625 201.835938 L 107.703125 255.457031 L 75.417969 129.046875 Z M 285.371094 75.429688 " clip-rule="nonzero"/></clipPath><clipPath id="f68f3f1384"><path d="M 285.371094 75.429688 L 317.65625 201.835938 L 107.703125 255.457031 L 75.417969 129.046875 Z M 285.371094 75.429688 " clip-rule="nonzero"/></clipPath><clipPath id="02c006a3a8"><path d="M 192 220 L 197 220 L 197 224 L 192 224 Z M 192 220 " clip-rule="nonzero"/></clipPath><clipPath id="c06b708c9c"><path d="M 285.371094 75.429688 L 317.65625 201.835938 L 107.703125 255.457031 L 75.417969 129.046875 Z M 285.371094 75.429688 " clip-rule="nonzero"/></clipPath><clipPath id="08719a2465"><path d="M 285.371094 75.429688 L 317.65625 201.835938 L 107.703125 255.457031 L 75.417969 129.046875 Z M 285.371094 75.429688 " clip-rule="nonzero"/></clipPath><clipPath id="4122540174"><path d="M 230 207 L 234 207 L 234 211 L 230 211 Z M 230 207 " clip-rule="nonzero"/></clipPath><clipPath id="1edc47e906"><path d="M 285.371094 75.429688 L 317.65625 201.835938 L 107.703125 255.457031 L 75.417969 129.046875 Z M 285.371094 75.429688 " clip-rule="nonzero"/></clipPath><clipPath id="98741bfff0"><path d="M 285.371094 75.429688 L 317.65625 201.835938 L 107.703125 255.457031 L 75.417969 129.046875 Z M 285.371094 75.429688 " clip-rule="nonzero"/></clipPath><clipPath id="a8ae7c9e52"><path d="M 183 158 L 187 158 L 187 162 L 183 162 Z M 183 158 " clip-rule="nonzero"/></clipPath><clipPath id="7ac6cf6069"><path d="M 285.371094 75.429688 L 317.65625 201.835938 L 107.703125 255.457031 L 75.417969 129.046875 Z M 285.371094 75.429688 " clip-rule="nonzero"/></clipPath><clipPath id="be32722ea0"><path d="M 285.371094 75.429688 L 317.65625 201.835938 L 107.703125 255.457031 L 75.417969 129.046875 Z M 285.371094 75.429688 " clip-rule="nonzero"/></clipPath><clipPath id="e8e1a70219"><path d="M 216 157 L 221 157 L 221 162 L 216 162 Z M 216 157 " clip-rule="nonzero"/></clipPath><clipPath id="0e1150b748"><path d="M 285.371094 75.429688 L 317.65625 201.835938 L 107.703125 255.457031 L 75.417969 129.046875 Z M 285.371094 75.429688 " clip-rule="nonzero"/></clipPath><clipPath id="043decf124"><path d="M 285.371094 75.429688 L 317.65625 201.835938 L 107.703125 255.457031 L 75.417969 129.046875 Z M 285.371094 75.429688 " clip-rule="nonzero"/></clipPath><clipPath id="43c07e0af1"><path d="M 204 156 L 208 156 L 208 161 L 204 161 Z M 204 156 " clip-rule="nonzero"/></clipPath><clipPath id="a9dc596fa2"><path d="M 285.371094 75.429688 L 317.65625 201.835938 L 107.703125 255.457031 L 75.417969 129.046875 Z M 285.371094 75.429688 " clip-rule="nonzero"/></clipPath><clipPath id="4ecf4b429a"><path d="M 285.371094 75.429688 L 317.65625 201.835938 L 107.703125 255.457031 L 75.417969 129.046875 Z M 285.371094 75.429688 " clip-rule="nonzero"/></clipPath><clipPath id="3788b49f7a"><path d="M 201 167 L 207 167 L 207 172 L 201 172 Z M 201 167 " clip-rule="nonzero"/></clipPath><clipPath id="a4efd33d39"><path d="M 285.371094 75.429688 L 317.65625 201.835938 L 107.703125 255.457031 L 75.417969 129.046875 Z M 285.371094 75.429688 " clip-rule="nonzero"/></clipPath><clipPath id="75d932b885"><path d="M 285.371094 75.429688 L 317.65625 201.835938 L 107.703125 255.457031 L 75.417969 129.046875 Z M 285.371094 75.429688 " clip-rule="nonzero"/></clipPath><clipPath id="1160689624"><path d="M 262 178 L 268 178 L 268 183 L 262 183 Z M 262 178 " clip-rule="nonzero"/></clipPath><clipPath id="8678eeee8e"><path d="M 285.371094 75.429688 L 317.65625 201.835938 L 107.703125 255.457031 L 75.417969 129.046875 Z M 285.371094 75.429688 " clip-rule="nonzero"/></clipPath><clipPath id="71d5c0d820"><path d="M 285.371094 75.429688 L 317.65625 201.835938 L 107.703125 255.457031 L 75.417969 129.046875 Z M 285.371094 75.429688 " clip-rule="nonzero"/></clipPath><clipPath id="3e87e4dfc1"><path d="M 280 167 L 284 167 L 284 171 L 280 171 Z M 280 167 " clip-rule="nonzero"/></clipPath><clipPath id="679616c082"><path d="M 285.371094 75.429688 L 317.65625 201.835938 L 107.703125 255.457031 L 75.417969 129.046875 Z M 285.371094 75.429688 " clip-rule="nonzero"/></clipPath><clipPath id="ebb94004a9"><path d="M 285.371094 75.429688 L 317.65625 201.835938 L 107.703125 255.457031 L 75.417969 129.046875 Z M 285.371094 75.429688 " clip-rule="nonzero"/></clipPath><clipPath id="7ffc63c00f"><path d="M 270 155 L 273 155 L 273 159 L 270 159 Z M 270 155 " clip-rule="nonzero"/></clipPath><clipPath id="a9d56a1c6e"><path d="M 285.371094 75.429688 L 317.65625 201.835938 L 107.703125 255.457031 L 75.417969 129.046875 Z M 285.371094 75.429688 " clip-rule="nonzero"/></clipPath><clipPath id="532bbe4712"><path d="M 285.371094 75.429688 L 317.65625 201.835938 L 107.703125 255.457031 L 75.417969 129.046875 Z M 285.371094 75.429688 " clip-rule="nonzero"/></clipPath><clipPath id="99fddb8d12"><path d="M 301 150 L 305 150 L 305 153 L 301 153 Z M 301 150 " clip-rule="nonzero"/></clipPath><clipPath id="ee7bb658e3"><path d="M 285.371094 75.429688 L 317.65625 201.835938 L 107.703125 255.457031 L 75.417969 129.046875 Z M 285.371094 75.429688 " clip-rule="nonzero"/></clipPath><clipPath id="de445a0aae"><path d="M 285.371094 75.429688 L 317.65625 201.835938 L 107.703125 255.457031 L 75.417969 129.046875 Z M 285.371094 75.429688 " clip-rule="nonzero"/></clipPath></defs><g clip-path="url(#0d8fc135b0)"><g clip-path="url(#5af6facc03)"><g clip-path="url(#17fa4870d3)"><path fill="#f3a6a4" d="M 206.589844 251.4375 C 206.691406 251.410156 206.691406 251.410156 206.765625 251.289062 C 206.863281 251.261719 206.863281 251.261719 206.9375 251.136719 C 207.109375 250.988281 207.285156 250.835938 207.355469 250.710938 C 207.503906 250.464844 207.578125 250.339844 207.601562 250.015625 C 207.601562 250.015625 207.601562 250.015625 207.578125 249.917969 C 207.625 249.691406 207.648438 249.367188 207.597656 249.171875 C 207.574219 249.070312 207.621094 248.847656 207.59375 248.746094 C 207.515625 247.605469 206.144531 246.792969 205.027344 246.972656 C 203.613281 247.226562 202.851562 248.796875 203.476562 250.011719 C 203.503906 250.109375 203.652344 250.285156 203.679688 250.382812 C 204.105469 251.226562 205.078125 251.71875 205.96875 251.488281 C 206.292969 251.511719 206.492188 251.460938 206.589844 251.4375 C 206.566406 251.339844 206.566406 251.339844 206.589844 251.4375 Z M 206.589844 251.4375 " fill-opacity="1" fill-rule="nonzero"/></g></g></g><g clip-path="url(#628772bf41)"><g clip-path="url(#6f7e65afb9)"><g clip-path="url(#9f21b7d1bd)"><path fill="#f3a6a4" d="M 205.242188 259.398438 C 205.242188 259.398438 205.214844 259.296875 205.214844 259.296875 C 205.214844 258.875 205.085938 258.378906 204.886719 258.007812 C 204.484375 257.265625 203.738281 256.820312 202.816406 256.949219 C 201.699219 257.128906 201.207031 258.101562 201.265625 259.144531 C 201.347656 260.710938 202.914062 261.472656 204.378906 260.992188 C 205.046875 260.714844 205.292969 260.019531 205.242188 259.398438 Z M 205.242188 259.398438 " fill-opacity="1" fill-rule="nonzero"/></g></g></g><g clip-path="url(#7b48ddf044)"><g clip-path="url(#838b065a9d)"><g clip-path="url(#4ebd49a098)"><path fill="#f3a6a4" d="M 220.117188 263.003906 C 220.09375 262.902344 220.066406 262.804688 219.941406 262.730469 C 219.414062 261.488281 217.574219 261.324219 216.808594 262.472656 C 215.800781 263.894531 217.050781 265.480469 218.613281 265.398438 C 218.714844 265.371094 218.8125 265.347656 218.910156 265.320312 C 220.027344 265.140625 220.542969 263.847656 220.117188 263.003906 Z M 220.117188 263.003906 " fill-opacity="1" fill-rule="nonzero"/></g></g></g><g clip-path="url(#25f633c52c)"><g clip-path="url(#ee37a0d9fa)"><g clip-path="url(#3ed30a227b)"><path fill="#f3a6a4" d="M 235.777344 259.742188 C 235.144531 257.261719 231.199219 257.953125 231.832031 260.433594 C 232.566406 262.890625 236.414062 262.226562 235.777344 259.742188 Z M 235.777344 259.742188 " fill-opacity="1" fill-rule="nonzero"/></g></g></g><g clip-path="url(#8825a054ae)"><g clip-path="url(#befea8e0eb)"><g clip-path="url(#41f3557a4a)"><path fill="#f3a6a4" d="M 268.488281 257.417969 C 268.238281 256.425781 267.414062 255.683594 266.296875 255.863281 C 265.375 255.992188 264.488281 257.066406 264.742188 258.058594 C 264.996094 259.050781 265.820312 259.792969 266.9375 259.613281 C 267.953125 259.460938 268.742188 258.410156 268.488281 257.417969 Z M 268.488281 257.417969 " fill-opacity="1" fill-rule="nonzero"/></g></g></g><g clip-path="url(#48bb7ccf18)"><g clip-path="url(#af4fa35ea0)"><g clip-path="url(#a055911314)"><path fill="#f3a6a4" d="M 195.988281 286.089844 C 196.03125 285.019531 195.15625 284.082031 194.039062 284.261719 C 192.625 284.515625 192.359375 285.957031 193.035156 286.949219 C 193.234375 287.320312 193.484375 287.46875 193.859375 287.691406 C 194.457031 287.960938 195.222656 287.660156 195.644531 287.234375 C 195.867188 286.859375 195.988281 286.511719 195.988281 286.089844 Z M 195.988281 286.089844 " fill-opacity="1" fill-rule="nonzero"/></g></g></g><g clip-path="url(#b15dcdf07c)"><g clip-path="url(#34f218fd06)"><g clip-path="url(#011739262c)"><path fill="#f3a6a4" d="M 202.335938 293.140625 C 201.75 290.859375 198.101562 291.472656 198.683594 293.757812 C 199.269531 296.039062 202.917969 295.425781 202.335938 293.140625 Z M 202.335938 293.140625 " fill-opacity="1" fill-rule="nonzero"/></g></g></g><g clip-path="url(#e4dda16777)"><g clip-path="url(#e945fe3c7e)"><g clip-path="url(#acaf9b9f7f)"><path fill="#f3a6a4" d="M 207.382812 279.371094 C 207.355469 279.273438 207.40625 279.046875 207.378906 278.949219 C 207.449219 277.980469 206.597656 277.136719 205.582031 277.292969 C 204.363281 277.496094 203.976562 278.867188 204.625 279.757812 C 204.652344 279.859375 204.773438 279.929688 204.824219 280.128906 C 205.5 281.121094 207.238281 280.464844 207.382812 279.371094 Z M 207.382812 279.371094 " fill-opacity="1" fill-rule="nonzero"/></g></g></g><g clip-path="url(#6dbb855aa8)"><g clip-path="url(#f3e764e73a)"><g clip-path="url(#f9dd403658)"><path fill="#f3a6a4" d="M 183.652344 294.105469 C 183.628906 294.003906 183.675781 293.78125 183.652344 293.683594 C 183.542969 292.019531 180.640625 292.652344 181.371094 294.265625 C 181.394531 294.363281 181.542969 294.539062 181.570312 294.636719 C 182.097656 295.878906 183.660156 295.371094 183.652344 294.105469 Z M 183.652344 294.105469 " fill-opacity="1" fill-rule="nonzero"/></g></g></g><g clip-path="url(#053f2fac68)"><g clip-path="url(#3ffd7809a8)"><g clip-path="url(#16ba2e3f51)"><path fill="#f3a6a4" d="M 218.835938 332.085938 C 218.300781 330 214.925781 330.4375 215.484375 332.625 C 216.015625 334.707031 219.367188 334.171875 218.835938 332.085938 Z M 218.835938 332.085938 " fill-opacity="1" fill-rule="nonzero"/></g></g></g><g clip-path="url(#2c63d0285b)"><g clip-path="url(#51bca29191)"><g clip-path="url(#4f9b715103)"><path fill="#f3a6a4" d="M 240.964844 350.019531 C 240.863281 349.199219 239.917969 348.808594 239.199219 349.308594 C 239.097656 349.332031 239.027344 349.457031 238.925781 349.484375 C 238.308594 349.960938 238.585938 351.050781 239.355469 351.171875 C 239.457031 351.144531 239.582031 351.21875 239.679688 351.195312 C 240.476562 351.414062 241.042969 350.742188 240.964844 350.019531 Z M 240.964844 350.019531 " fill-opacity="1" fill-rule="nonzero"/></g></g></g><g clip-path="url(#cc9ae35a13)"><g clip-path="url(#47d4f6a33a)"><g clip-path="url(#b83090bd27)"><path fill="#f3a6a4" d="M 180.152344 337.945312 C 180.128906 337.84375 180.203125 337.71875 180.175781 337.621094 C 180.296875 336.425781 179.296875 335.414062 178.078125 335.617188 C 176.960938 335.796875 176.050781 337.195312 176.726562 338.183594 C 176.902344 338.457031 177.050781 338.628906 177.128906 338.929688 C 177.953125 340.09375 180.085938 339.335938 180.152344 337.945312 Z M 180.152344 337.945312 " fill-opacity="1" fill-rule="nonzero"/></g></g></g><g clip-path="url(#d32d8388df)"><g clip-path="url(#8a06290764)"><g clip-path="url(#2279b2e81a)"><path fill="#f3a6a4" d="M 178.558594 346.601562 C 178.585938 346.699219 178.683594 346.675781 178.707031 346.773438 C 179.433594 347.542969 181.023438 347.558594 181.367188 346.414062 C 181.414062 346.191406 181.460938 345.964844 181.511719 345.742188 C 181.65625 344.648438 180.582031 343.757812 179.5625 343.914062 C 178.320312 344.019531 177.757812 345.535156 178.558594 346.601562 Z M 178.558594 346.601562 " fill-opacity="1" fill-rule="nonzero"/></g></g></g><g clip-path="url(#1e6c136c86)"><g clip-path="url(#f87cdc3f92)"><g clip-path="url(#e0c34fbd6b)"><path fill="#f3a6a4" d="M 168.929688 348.636719 C 169.75 348.535156 170.488281 347.710938 170.261719 346.816406 C 170.058594 346.023438 169.359375 345.355469 168.441406 345.484375 C 167.621094 345.585938 166.878906 346.410156 167.109375 347.304688 C 167.335938 348.199219 168.011719 348.765625 168.929688 348.636719 Z M 168.929688 348.636719 " fill-opacity="1" fill-rule="nonzero"/></g></g></g><g clip-path="url(#71b22c1837)"><g clip-path="url(#5d67c2e388)"><g clip-path="url(#5f1f96651d)"><path fill="#f3a6a4" d="M 155.722656 350.742188 C 154.519531 349.355469 152.511719 350.1875 152.199219 351.851562 C 151.90625 353.195312 152.582031 354.1875 153.777344 354.730469 C 154.625 355.148438 155.566406 354.695312 156.035156 354.046875 C 156.824219 353 156.59375 351.683594 155.722656 350.742188 Z M 155.722656 350.742188 " fill-opacity="1" fill-rule="nonzero"/></g></g></g><g clip-path="url(#bc5b7343c0)"><g clip-path="url(#046580d921)"><g clip-path="url(#75dbe8d7f0)"><path fill="#f3a6a4" d="M 169.863281 366.378906 C 169.734375 365.460938 168.789062 364.644531 167.917969 364.972656 C 167.621094 365.050781 167.324219 365.125 167.050781 365.300781 C 165.265625 366.179688 166.199219 368.585938 167.960938 368.453125 C 168.0625 368.429688 168.285156 368.476562 168.386719 368.453125 C 169.277344 368.222656 170.019531 367.398438 169.863281 366.378906 Z M 169.863281 366.378906 " fill-opacity="1" fill-rule="nonzero"/></g></g></g><g clip-path="url(#3968aff0d1)"><g clip-path="url(#c67d1611f1)"><g clip-path="url(#c50dbc70a2)"><path fill="#f3a6a4" d="M 167.769531 388.8125 C 167.464844 387.621094 166.390625 386.730469 165.078125 386.960938 C 163.859375 387.164062 162.921875 388.460938 163.226562 389.65625 C 163.53125 390.847656 164.605469 391.734375 165.921875 391.503906 C 167.109375 391.199219 168.074219 390.003906 167.769531 388.8125 Z M 167.769531 388.8125 " fill-opacity="1" fill-rule="nonzero"/></g></g></g><g clip-path="url(#8ad97fccd6)"><g clip-path="url(#d93395e89c)"><g clip-path="url(#062112f3dc)"><path fill="#f3a6a4" d="M 234.191406 365.714844 C 233.632812 363.527344 230.054688 364.019531 230.640625 366.304688 C 231.222656 368.585938 234.773438 367.996094 234.191406 365.714844 Z M 234.191406 365.714844 " fill-opacity="1" fill-rule="nonzero"/></g></g></g><g clip-path="url(#76d8ccef05)"><g clip-path="url(#97636d1327)"><g clip-path="url(#780e53ccdf)"><path fill="#f3a6a4" d="M 248.945312 360.570312 C 249.21875 360.394531 249.515625 360.316406 249.765625 360.042969 C 250.109375 359.742188 250.160156 359.519531 250.40625 359.246094 C 250.800781 358.722656 250.574219 357.828125 249.976562 357.558594 C 249.625 357.433594 249.476562 357.261719 249.152344 357.238281 C 248.832031 357.214844 248.605469 357.164062 248.308594 357.242188 C 247.140625 357.222656 246.175781 358 246.40625 359.316406 C 246.660156 360.308594 247.929688 361.144531 248.945312 360.570312 Z M 248.945312 360.570312 " fill-opacity="1" fill-rule="nonzero"/></g></g></g><g clip-path="url(#b3ac3a9e47)"><g clip-path="url(#02818d38e6)"><g clip-path="url(#9264c80b64)"><path fill="#f3a6a4" d="M 287.039062 346.1875 C 286.582031 344.398438 283.726562 344.8125 284.183594 346.597656 C 284.636719 348.386719 287.492188 347.976562 287.039062 346.1875 Z M 287.039062 346.1875 " fill-opacity="1" fill-rule="nonzero"/></g></g></g><g clip-path="url(#70218537f7)"><g clip-path="url(#3a2d4a131c)"><g clip-path="url(#0fcb8877e8)"><path fill="#f3a6a4" d="M 237.609375 296.71875 C 237.636719 296.820312 237.5625 296.945312 237.585938 297.042969 C 237.542969 298.113281 238.292969 298.980469 239.410156 298.800781 C 240.425781 298.644531 241.191406 297.5 240.617188 296.480469 C 240.589844 296.382812 240.464844 296.308594 240.441406 296.210938 C 240.0625 295.566406 239.539062 295.167969 238.84375 295.347656 C 238.25 295.5 237.558594 296.097656 237.609375 296.71875 Z M 237.609375 296.71875 " fill-opacity="1" fill-rule="nonzero"/></g></g></g><g clip-path="url(#602056713c)"><g clip-path="url(#3a2af8dc60)"><g clip-path="url(#c2da155767)"><path fill="#f3a6a4" d="M 274.207031 296.363281 C 273.625 294.082031 269.976562 294.695312 270.558594 296.980469 C 271.140625 299.261719 274.789062 298.648438 274.207031 296.363281 Z M 274.207031 296.363281 " fill-opacity="1" fill-rule="nonzero"/></g></g></g><g clip-path="url(#ec8ed2b05a)"><g clip-path="url(#bd90dc1c26)"><g clip-path="url(#b023d55b3a)"><path fill="#f3a6a4" d="M 261.359375 296.15625 C 261.335938 296.054688 261.382812 295.832031 261.359375 295.734375 C 261.355469 294.886719 260.703125 293.996094 259.785156 294.125 C 258.964844 294.226562 258.273438 295.25 258.703125 296.09375 C 258.726562 296.191406 258.878906 296.367188 258.902344 296.464844 C 259.152344 297.035156 259.652344 297.332031 260.273438 297.277344 C 260.792969 297.25 261.414062 296.777344 261.359375 296.15625 Z M 261.359375 296.15625 " fill-opacity="1" fill-rule="nonzero"/></g></g></g><g clip-path="url(#63b348f754)"><g clip-path="url(#c40725d984)"><g clip-path="url(#a07e725d29)"><path fill="#f3a6a4" d="M 255.453125 306.972656 C 255.632812 308.089844 256.65625 308.78125 257.773438 308.601562 C 258.070312 308.523438 258.367188 308.449219 258.664062 308.371094 C 258.765625 308.347656 259.234375 308.121094 259.039062 308.171875 C 259.632812 308.019531 260.722656 307.320312 260.644531 306.597656 C 260.386719 304.761719 257.972656 304.425781 256.511719 304.902344 C 255.71875 305.105469 255.25 306.175781 255.453125 306.972656 Z M 255.453125 306.972656 " fill-opacity="1" fill-rule="nonzero"/></g></g></g><g clip-path="url(#a8cd2141b0)"><g clip-path="url(#cf5dc49ad4)"><g clip-path="url(#3dfc02b83f)"><path fill="#f3a6a4" d="M 321.078125 317.183594 C 320.796875 316.09375 319.847656 315.277344 318.632812 315.480469 C 317.613281 315.636719 316.652344 316.835938 316.929688 317.925781 C 317.210938 319.019531 318.160156 319.835938 319.375 319.628906 C 320.367188 319.375 321.355469 318.277344 321.078125 317.183594 Z M 321.078125 317.183594 " fill-opacity="1" fill-rule="nonzero"/></g></g></g><g clip-path="url(#54159c2d66)"><g clip-path="url(#86c84fe4f6)"><g clip-path="url(#d1bcf53431)"><path fill="#f3a6a4" d="M 335.007812 306.328125 C 335.183594 306.601562 335.261719 306.898438 335.511719 307.046875 C 336.035156 307.441406 336.726562 307.265625 336.898438 306.691406 C 337.023438 306.34375 337.070312 306.121094 336.96875 305.722656 C 337.011719 304.230469 334.332031 304.914062 335.007812 306.328125 Z M 335.007812 306.328125 " fill-opacity="1" fill-rule="nonzero"/></g></g></g><g clip-path="url(#a37017d7d0)"><g clip-path="url(#da92a8a571)"><g clip-path="url(#b519a863d1)"><path fill="#f3a6a4" d="M 324.433594 293.902344 C 324.484375 294.101562 324.5625 294.398438 324.710938 294.574219 C 324.863281 294.746094 324.984375 294.820312 325.234375 294.96875 C 324.960938 294.722656 324.863281 294.746094 325.011719 294.917969 C 325.585938 295.511719 326.480469 295.285156 326.699219 294.488281 C 326.699219 294.488281 326.671875 294.390625 326.671875 294.390625 C 326.671875 294.390625 326.671875 294.390625 326.648438 294.289062 C 326.769531 293.941406 326.695312 293.644531 326.691406 293.222656 C 326.558594 291.457031 323.78125 292.167969 324.433594 293.902344 Z M 324.433594 293.902344 " fill-opacity="1" fill-rule="nonzero"/></g></g></g><g clip-path="url(#4f7ff30fa8)"><g clip-path="url(#2376ca45e5)"><g clip-path="url(#41924899c2)"><path fill="#f3a6a4" d="M 355.738281 288.554688 C 356.171875 290.242188 358.828125 289.878906 358.394531 288.191406 C 357.988281 286.601562 355.332031 286.964844 355.738281 288.554688 Z M 355.738281 288.554688 " fill-opacity="1" fill-rule="nonzero"/></g></g></g><g clip-path="url(#41fc1d6858)"><g clip-path="url(#b3cd4c5271)"><g clip-path="url(#08f4f5fef6)"><path fill="#f3a6a4" d="M 152.605469 114.308594 C 152.703125 114.28125 152.703125 114.28125 152.777344 114.15625 C 152.878906 114.132812 152.878906 114.132812 152.953125 114.007812 C 153.125 113.859375 153.296875 113.707031 153.371094 113.582031 C 153.519531 113.332031 153.59375 113.207031 153.617188 112.886719 C 153.617188 112.886719 153.617188 112.886719 153.589844 112.785156 C 153.640625 112.5625 153.664062 112.238281 153.613281 112.039062 C 153.585938 111.941406 153.636719 111.71875 153.609375 111.617188 C 153.53125 110.476562 152.160156 109.660156 151.042969 109.839844 C 149.625 110.097656 148.863281 111.667969 149.492188 112.882812 C 149.515625 112.980469 149.667969 113.152344 149.691406 113.253906 C 150.121094 114.097656 151.089844 114.589844 151.984375 114.359375 C 152.308594 114.382812 152.507812 114.332031 152.605469 114.308594 C 152.578125 114.207031 152.578125 114.207031 152.605469 114.308594 Z M 152.605469 114.308594 " fill-opacity="1" fill-rule="nonzero"/></g></g></g><g clip-path="url(#3fac1c6c05)"><g clip-path="url(#ecb920ca4d)"><g clip-path="url(#1898ab91b5)"><path fill="#f3a6a4" d="M 151.253906 122.269531 C 151.253906 122.269531 151.230469 122.167969 151.230469 122.167969 C 151.226562 121.746094 151.101562 121.25 150.898438 120.878906 C 150.5 120.132812 149.75 119.691406 148.832031 119.820312 C 147.714844 120 147.222656 120.972656 147.277344 122.015625 C 147.359375 123.578125 148.929688 124.34375 150.394531 123.863281 C 151.0625 123.585938 151.308594 122.890625 151.253906 122.269531 Z M 151.253906 122.269531 " fill-opacity="1" fill-rule="nonzero"/></g></g></g><g clip-path="url(#d49622705e)"><g clip-path="url(#a4545d3825)"><g clip-path="url(#c18e46334a)"><path fill="#f3a6a4" d="M 166.132812 125.871094 C 166.105469 125.773438 166.082031 125.675781 165.957031 125.601562 C 165.429688 124.359375 163.589844 124.195312 162.824219 125.34375 C 161.8125 126.765625 163.0625 128.347656 164.628906 128.265625 C 164.726562 128.242188 164.828125 128.214844 164.925781 128.191406 C 166.042969 128.011719 166.558594 126.714844 166.132812 125.871094 Z M 166.132812 125.871094 " fill-opacity="1" fill-rule="nonzero"/></g></g></g><g clip-path="url(#8ae22a4ff3)"><g clip-path="url(#d24d3daab9)"><g clip-path="url(#33d97b45c0)"><path fill="#f3a6a4" d="M 181.792969 122.613281 C 181.160156 120.132812 177.210938 120.820312 177.847656 123.304688 C 178.578125 125.761719 182.425781 125.097656 181.792969 122.613281 Z M 181.792969 122.613281 " fill-opacity="1" fill-rule="nonzero"/></g></g></g><g clip-path="url(#a80d8f063f)"><g clip-path="url(#c9f6b0cb29)"><g clip-path="url(#c45b52a101)"><path fill="#f3a6a4" d="M 214.503906 120.289062 C 214.25 119.296875 213.425781 118.554688 212.308594 118.734375 C 211.390625 118.863281 210.503906 119.9375 210.757812 120.929688 C 211.007812 121.921875 211.832031 122.664062 212.949219 122.484375 C 213.96875 122.328125 214.757812 121.28125 214.503906 120.289062 Z M 214.503906 120.289062 " fill-opacity="1" fill-rule="nonzero"/></g></g></g><g clip-path="url(#7d526ec1c2)"><g clip-path="url(#a32b0ae604)"><g clip-path="url(#473397ec89)"><path fill="#f3a6a4" d="M 142 148.960938 C 142.046875 147.890625 141.171875 146.949219 140.054688 147.128906 C 138.636719 147.386719 138.371094 148.828125 139.046875 149.820312 C 139.25 150.191406 139.5 150.339844 139.871094 150.5625 C 140.46875 150.832031 141.238281 150.53125 141.660156 150.105469 C 141.878906 149.730469 142.003906 149.382812 142 148.960938 Z M 142 148.960938 " fill-opacity="1" fill-rule="nonzero"/></g></g></g><g clip-path="url(#4b8f47fd3a)"><g clip-path="url(#23a48f3bb9)"><g clip-path="url(#6815a192b8)"><path fill="#f3a6a4" d="M 148.347656 156.011719 C 147.765625 153.730469 144.117188 154.34375 144.699219 156.628906 C 145.28125 158.910156 148.933594 158.296875 148.347656 156.011719 Z M 148.347656 156.011719 " fill-opacity="1" fill-rule="nonzero"/></g></g></g><g clip-path="url(#1ec8c6684e)"><g clip-path="url(#ceaa518ff6)"><g clip-path="url(#7ee21d075a)"><path fill="#f3a6a4" d="M 153.394531 142.242188 C 153.371094 142.144531 153.417969 141.917969 153.394531 141.820312 C 153.464844 140.851562 152.613281 140.007812 151.597656 140.164062 C 150.378906 140.367188 149.988281 141.738281 150.640625 142.628906 C 150.664062 142.726562 150.789062 142.800781 150.839844 143 C 151.515625 143.992188 153.253906 143.335938 153.394531 142.242188 Z M 153.394531 142.242188 " fill-opacity="1" fill-rule="nonzero"/></g></g></g><g clip-path="url(#8d0c7df977)"><g clip-path="url(#566dad720f)"><g clip-path="url(#bd2c742ed2)"><path fill="#f3a6a4" d="M 129.667969 156.976562 C 129.644531 156.875 129.691406 156.652344 129.667969 156.550781 C 129.558594 154.886719 126.65625 155.523438 127.382812 157.136719 C 127.410156 157.234375 127.558594 157.410156 127.585938 157.507812 C 128.113281 158.746094 129.675781 158.242188 129.667969 156.976562 Z M 129.667969 156.976562 " fill-opacity="1" fill-rule="nonzero"/></g></g></g><g clip-path="url(#65989d7f13)"><g clip-path="url(#fc1db308d2)"><g clip-path="url(#dc3215939b)"><path fill="#f3a6a4" d="M 164.847656 194.953125 C 164.316406 192.871094 160.941406 193.308594 161.496094 195.492188 C 162.03125 197.578125 165.382812 197.039062 164.847656 194.953125 Z M 164.847656 194.953125 " fill-opacity="1" fill-rule="nonzero"/></g></g></g><g clip-path="url(#dcf0d77599)"><g clip-path="url(#4e88840664)"><g clip-path="url(#9d76582282)"><path fill="#f3a6a4" d="M 186.980469 212.890625 C 186.878906 212.070312 185.929688 211.679688 185.214844 212.179688 C 185.113281 212.203125 185.039062 212.328125 184.941406 212.355469 C 184.320312 212.828125 184.601562 213.921875 185.371094 214.042969 C 185.472656 214.015625 185.597656 214.089844 185.695312 214.066406 C 186.492188 214.285156 187.058594 213.609375 186.980469 212.890625 Z M 186.980469 212.890625 " fill-opacity="1" fill-rule="nonzero"/></g></g></g><g clip-path="url(#dddb0aca66)"><g clip-path="url(#09ad4ba36b)"><g clip-path="url(#5abb70793b)"><path fill="#f3a6a4" d="M 126.167969 200.8125 C 126.144531 200.714844 126.21875 200.589844 126.191406 200.492188 C 126.308594 199.296875 125.308594 198.28125 124.09375 198.488281 C 122.976562 198.667969 122.066406 200.0625 122.742188 201.054688 C 122.917969 201.328125 123.066406 201.5 123.140625 201.796875 C 123.96875 202.960938 126.101562 202.207031 126.167969 200.8125 Z M 126.167969 200.8125 " fill-opacity="1" fill-rule="nonzero"/></g></g></g><g clip-path="url(#f2f9ff0b07)"><g clip-path="url(#eabf5b52e9)"><g clip-path="url(#c7387f1893)"><path fill="#f3a6a4" d="M 124.574219 209.472656 C 124.597656 209.570312 124.699219 209.546875 124.722656 209.644531 C 125.449219 210.414062 127.039062 210.429688 127.378906 209.285156 C 127.429688 209.058594 127.476562 208.835938 127.527344 208.613281 C 127.667969 207.519531 126.597656 206.628906 125.578125 206.78125 C 124.335938 206.886719 123.773438 208.40625 124.574219 209.472656 Z M 124.574219 209.472656 " fill-opacity="1" fill-rule="nonzero"/></g></g></g><g clip-path="url(#9a0b225cf2)"><g clip-path="url(#3eba6a8059)"><g clip-path="url(#3148e3edf2)"><path fill="#f3a6a4" d="M 114.941406 211.507812 C 115.761719 211.40625 116.503906 210.582031 116.277344 209.6875 C 116.074219 208.894531 115.375 208.226562 114.453125 208.355469 C 113.636719 208.457031 112.894531 209.28125 113.121094 210.175781 C 113.351562 211.070312 114.023438 211.636719 114.941406 211.507812 Z M 114.941406 211.507812 " fill-opacity="1" fill-rule="nonzero"/></g></g></g><g clip-path="url(#84e176a74b)"><g clip-path="url(#f9b0fec5fe)"><g clip-path="url(#c6841dcfce)"><path fill="#f3a6a4" d="M 101.734375 213.613281 C 100.535156 212.226562 98.527344 213.054688 98.214844 214.722656 C 97.921875 216.066406 98.597656 217.058594 99.792969 217.597656 C 100.640625 218.015625 101.582031 217.566406 102.050781 216.917969 C 102.839844 215.867188 102.609375 214.550781 101.734375 213.613281 Z M 101.734375 213.613281 " fill-opacity="1" fill-rule="nonzero"/></g></g></g><g clip-path="url(#66ee468fae)"><g clip-path="url(#40a3f68e9e)"><g clip-path="url(#1b53a5dc49)"><path fill="#f3a6a4" d="M 115.878906 229.25 C 115.75 228.332031 114.800781 227.515625 113.933594 227.84375 C 113.636719 227.917969 113.339844 227.996094 113.066406 228.171875 C 111.28125 229.050781 112.214844 231.457031 113.976562 231.324219 C 114.078125 231.296875 114.300781 231.347656 114.398438 231.320312 C 115.292969 231.09375 116.035156 230.269531 115.878906 229.25 Z M 115.878906 229.25 " fill-opacity="1" fill-rule="nonzero"/></g></g></g><g clip-path="url(#9f78fdb6e0)"><g clip-path="url(#55ae99aee3)"><g clip-path="url(#a5cd4d91f5)"><path fill="#f3a6a4" d="M 113.785156 251.683594 C 113.480469 250.488281 112.40625 249.601562 111.089844 249.832031 C 109.875 250.035156 108.9375 251.332031 109.242188 252.523438 C 109.546875 253.714844 110.617188 254.605469 111.933594 254.375 C 113.125 254.070312 114.089844 252.875 113.785156 251.683594 Z M 113.785156 251.683594 " fill-opacity="1" fill-rule="nonzero"/></g></g></g><g clip-path="url(#77319090c1)"><g clip-path="url(#b49ed4a902)"><g clip-path="url(#f68f3f1384)"><path fill="#f3a6a4" d="M 180.203125 228.582031 C 179.648438 226.398438 176.070312 226.890625 176.65625 229.171875 C 177.238281 231.457031 180.789062 230.867188 180.203125 228.582031 Z M 180.203125 228.582031 " fill-opacity="1" fill-rule="nonzero"/></g></g></g><g clip-path="url(#02c006a3a8)"><g clip-path="url(#c06b708c9c)"><g clip-path="url(#08719a2465)"><path fill="#f3a6a4" d="M 194.960938 223.441406 C 195.234375 223.265625 195.53125 223.1875 195.777344 222.914062 C 196.125 222.613281 196.171875 222.390625 196.421875 222.113281 C 196.816406 221.589844 196.585938 220.699219 195.988281 220.425781 C 195.640625 220.304688 195.492188 220.132812 195.167969 220.109375 C 194.84375 220.085938 194.621094 220.035156 194.324219 220.113281 C 193.15625 220.09375 192.191406 220.867188 192.421875 222.183594 C 192.675781 223.175781 193.945312 224.015625 194.960938 223.441406 Z M 194.960938 223.441406 " fill-opacity="1" fill-rule="nonzero"/></g></g></g><g clip-path="url(#4122540174)"><g clip-path="url(#1edc47e906)"><g clip-path="url(#98741bfff0)"><path fill="#f3a6a4" d="M 233.050781 209.058594 C 232.59375 207.269531 229.738281 207.683594 230.195312 209.46875 C 230.652344 211.257812 233.507812 210.84375 233.050781 209.058594 Z M 233.050781 209.058594 " fill-opacity="1" fill-rule="nonzero"/></g></g></g><g clip-path="url(#a8ae7c9e52)"><g clip-path="url(#7ac6cf6069)"><g clip-path="url(#be32722ea0)"><path fill="#f3a6a4" d="M 183.625 159.589844 C 183.648438 159.691406 183.574219 159.816406 183.601562 159.914062 C 183.558594 160.984375 184.308594 161.847656 185.425781 161.667969 C 186.441406 161.515625 187.207031 160.367188 186.628906 159.351562 C 186.605469 159.253906 186.480469 159.179688 186.453125 159.078125 C 186.078125 158.433594 185.554688 158.039062 184.859375 158.21875 C 184.265625 158.371094 183.570312 158.96875 183.625 159.589844 Z M 183.625 159.589844 " fill-opacity="1" fill-rule="nonzero"/></g></g></g><g clip-path="url(#e8e1a70219)"><g clip-path="url(#0e1150b748)"><g clip-path="url(#043decf124)"><path fill="#f3a6a4" d="M 220.222656 159.234375 C 219.636719 156.949219 215.988281 157.566406 216.574219 159.851562 C 217.15625 162.132812 220.804688 161.519531 220.222656 159.234375 Z M 220.222656 159.234375 " fill-opacity="1" fill-rule="nonzero"/></g></g></g><g clip-path="url(#43c07e0af1)"><g clip-path="url(#a9dc596fa2)"><g clip-path="url(#4ecf4b429a)"><path fill="#f3a6a4" d="M 207.375 159.023438 C 207.351562 158.925781 207.398438 158.703125 207.371094 158.601562 C 207.367188 157.757812 206.71875 156.867188 205.800781 156.996094 C 204.980469 157.097656 204.289062 158.121094 204.714844 158.964844 C 204.742188 159.0625 204.890625 159.238281 204.917969 159.335938 C 205.167969 159.90625 205.667969 160.203125 206.289062 160.148438 C 206.808594 160.121094 207.429688 159.644531 207.375 159.023438 Z M 207.375 159.023438 " fill-opacity="1" fill-rule="nonzero"/></g></g></g><g clip-path="url(#3788b49f7a)"><g clip-path="url(#a4efd33d39)"><g clip-path="url(#75d932b885)"><path fill="#f3a6a4" d="M 201.46875 169.84375 C 201.648438 170.960938 202.667969 171.652344 203.785156 171.472656 C 204.085938 171.394531 204.382812 171.320312 204.679688 171.242188 C 204.78125 171.21875 205.25 170.992188 205.050781 171.042969 C 205.648438 170.890625 206.738281 170.1875 206.660156 169.46875 C 206.402344 167.628906 203.988281 167.292969 202.527344 167.773438 C 201.730469 167.976562 201.265625 169.046875 201.46875 169.84375 Z M 201.46875 169.84375 " fill-opacity="1" fill-rule="nonzero"/></g></g></g><g clip-path="url(#1160689624)"><g clip-path="url(#8678eeee8e)"><g clip-path="url(#71d5c0d820)"><path fill="#f3a6a4" d="M 267.089844 180.054688 C 266.8125 178.964844 265.863281 178.148438 264.648438 178.351562 C 263.628906 178.507812 262.667969 179.703125 262.945312 180.796875 C 263.222656 181.890625 264.171875 182.703125 265.390625 182.5 C 266.382812 182.246094 267.371094 181.148438 267.089844 180.054688 Z M 267.089844 180.054688 " fill-opacity="1" fill-rule="nonzero"/></g></g></g><g clip-path="url(#3e87e4dfc1)"><g clip-path="url(#679616c082)"><g clip-path="url(#ebb94004a9)"><path fill="#f3a6a4" d="M 281.023438 169.199219 C 281.199219 169.472656 281.273438 169.769531 281.523438 169.917969 C 282.046875 170.3125 282.742188 170.132812 282.914062 169.5625 C 283.035156 169.214844 283.085938 168.988281 282.984375 168.59375 C 283.027344 167.101562 280.34375 167.785156 281.023438 169.199219 Z M 281.023438 169.199219 " fill-opacity="1" fill-rule="nonzero"/></g></g></g><g clip-path="url(#7ffc63c00f)"><g clip-path="url(#a9d56a1c6e)"><g clip-path="url(#532bbe4712)"><path fill="#f3a6a4" d="M 270.449219 156.773438 C 270.5 156.972656 270.574219 157.269531 270.726562 157.441406 C 270.875 157.617188 271 157.691406 271.25 157.839844 C 270.976562 157.589844 270.875 157.617188 271.027344 157.789062 C 271.601562 158.382812 272.492188 158.15625 272.714844 157.359375 C 272.714844 157.359375 272.6875 157.257812 272.6875 157.257812 C 272.6875 157.257812 272.6875 157.257812 272.664062 157.160156 C 272.785156 156.8125 272.710938 156.511719 272.707031 156.089844 C 272.574219 154.328125 269.792969 155.035156 270.449219 156.773438 Z M 270.449219 156.773438 " fill-opacity="1" fill-rule="nonzero"/></g></g></g><g clip-path="url(#99fddb8d12)"><g clip-path="url(#ee7bb658e3)"><g clip-path="url(#de445a0aae)"><path fill="#f3a6a4" d="M 301.753906 151.421875 C 302.183594 153.109375 304.839844 152.75 304.410156 151.0625 C 304.003906 149.472656 301.347656 149.835938 301.753906 151.421875 Z M 301.753906 151.421875 " fill-opacity="1" fill-rule="nonzero"/></g></g></g></svg>